<?xml version="1.0" standalone="no"?>
<!DOCTYPE svg PUBLIC "-//W3C//DTD SVG 20010904//EN"
 "http://www.w3.org/TR/2001/REC-SVG-20010904/DTD/svg10.dtd">
<svg version="1.0" xmlns="http://www.w3.org/2000/svg"
 width="1024.000000pt" height="1024.000000pt" viewBox="0 0 1024.000000 1024.000000"
 preserveAspectRatio="xMidYMid meet">
<metadata>
Created by potrace 1.14, written by Peter Selinger 2001-2017
</metadata>
<g transform="translate(0.000000,1024.000000) scale(0.100000,-0.100000)"
fill="#000000" stroke="none">
<path d="M2129 10236 c-2 -2 -20 -7 -39 -10 -107 -18 -209 -55 -319 -117 -29
-16 -60 -37 -68 -45 -8 -7 -18 -14 -22 -14 -17 0 -180 -168 -224 -231 -51 -72
-112 -189 -123 -235 -4 -16 -11 -35 -17 -41 -5 -7 -7 -13 -3 -13 3 0 1 -11 -4
-25 -5 -14 -13 -46 -17 -72 -10 -58 -11 -8549 -1 -8613 20 -141 100 -320 197
-443 46 -59 169 -172 224 -207 34 -22 67 -44 73 -49 10 -8 70 -38 94 -46 3 -1
14 -5 25 -9 59 -23 47 -19 100 -34 22 -6 51 -12 65 -14 14 -2 30 -7 36 -11 16
-9 6021 -4 6059 6 229 59 370 138 523 295 45 46 82 88 82 93 0 4 7 14 14 22
43 43 135 243 152 332 2 11 7 31 11 45 13 43 15 8601 2 8617 -6 7 -9 13 -6 13
4 0 -5 43 -27 130 -8 31 -60 146 -73 161 -7 8 -13 19 -13 23 0 20 -93 140
-160 207 -139 140 -318 236 -513 277 -34 7 -6021 15 -6028 8z m791 -1276 c18
5 32 5 35 -1 4 -5 13 -5 24 0 9 5 23 6 31 1 7 -4 24 -4 36 0 14 6 26 5 29 0 3
-6 15 -6 30 0 15 6 27 6 30 0 3 -6 15 -6 30 0 15 6 27 6 30 0 4 -6 13 -7 24
-1 9 5 23 6 31 1 7 -4 24 -4 36 0 14 6 26 5 29 0 3 -6 15 -6 30 0 15 6 27 6
30 0 3 -6 15 -6 30 0 15 6 27 6 30 0 4 -6 13 -7 24 -1 9 5 23 6 31 1 7 -4 24
-4 36 0 14 6 26 5 29 0 3 -6 15 -6 30 0 15 6 27 6 30 0 3 -6 15 -6 30 0 15 6
27 6 30 0 4 -6 13 -7 24 -1 10 6 23 6 31 1 8 -5 21 -5 31 0 9 5 19 7 23 3 9
-9 58 -10 83 -1 12 4 25 3 28 -2 3 -5 15 -6 29 0 12 4 29 4 36 0 8 -5 18 -6
24 -3 13 9 126 9 126 1 0 -4 11 -3 25 2 16 6 25 6 25 0 0 -6 9 -6 25 0 15 6
27 6 30 0 3 -5 15 -6 29 0 12 4 29 4 36 0 8 -5 18 -6 24 -3 13 9 126 9 126 1
0 -4 11 -3 25 2 16 6 25 6 25 0 0 -6 9 -6 25 0 15 6 27 6 30 0 3 -5 15 -6 29
0 12 4 29 4 36 0 8 -5 18 -6 24 -3 13 9 126 9 126 1 0 -4 11 -3 25 2 16 6 25
6 25 0 0 -6 9 -6 25 0 15 6 27 6 30 0 3 -5 15 -6 29 0 12 4 29 4 36 0 8 -5 18
-6 24 -3 13 9 126 9 126 1 0 -4 10 -4 23 0 25 9 74 8 83 -1 3 -3 17 -2 30 3
14 6 26 6 29 0 3 -5 15 -6 28 -1 12 5 32 5 44 0 13 -5 25 -4 28 1 3 6 15 6 30
0 15 -6 25 -6 25 0 0 5 12 5 30 0 17 -5 32 -5 35 0 3 5 16 5 30 0 15 -6 27 -6
30 0 3 6 15 6 30 0 15 -6 27 -6 30 0 3 6 15 6 30 0 15 -6 25 -6 25 0 0 5 12 5
30 0 17 -5 32 -5 35 0 3 5 16 5 30 0 15 -6 27 -6 30 0 3 6 15 6 30 0 15 -6 27
-6 30 0 3 6 15 6 30 0 15 -6 25 -6 25 0 0 5 12 5 30 0 17 -5 32 -5 35 0 3 5
16 5 30 0 15 -6 27 -6 30 0 3 6 15 6 30 0 15 -6 27 -6 30 0 3 6 15 6 30 0 15
-6 25 -6 25 0 0 5 12 5 30 0 17 -5 32 -5 35 0 3 5 16 5 30 0 15 -6 27 -6 30 0
3 6 15 6 30 0 15 -6 27 -6 30 0 3 6 15 6 30 0 15 -6 25 -6 25 0 0 5 12 5 30 0
17 -5 32 -5 35 0 3 5 16 5 30 0 15 -6 27 -6 30 0 3 6 15 6 29 0 13 -5 27 -6
30 -3 9 9 66 9 66 1 0 -4 6 -5 14 -2 22 8 226 10 226 2 0 -4 6 -5 14 -2 22 8
226 10 226 2 0 -4 6 -5 14 -2 18 7 226 11 226 4 0 -3 27 -5 59 -6 32 -1 67 -5
77 -9 11 -4 24 -9 31 -11 21 -4 77 -46 109 -81 48 -53 75 -115 77 -178 1 -30
5 -55 9 -55 4 0 3 -13 -2 -30 -5 -17 -5 -30 0 -30 5 0 5 -13 0 -30 -5 -17 -5
-30 0 -30 5 0 5 -13 0 -30 -5 -17 -5 -30 0 -30 5 0 5 -13 0 -30 -5 -17 -5 -30
0 -30 5 0 5 -13 0 -30 -5 -17 -5 -30 0 -30 5 0 5 -13 0 -30 -5 -17 -5 -30 0
-30 5 0 5 -13 0 -30 -5 -17 -5 -30 0 -30 5 0 5 -13 0 -30 -5 -17 -5 -30 0 -30
5 0 5 -13 0 -30 -5 -17 -5 -30 0 -30 5 0 5 -13 0 -30 -5 -17 -5 -30 0 -30 5 0
5 -13 0 -30 -5 -17 -5 -30 0 -30 5 0 5 -13 0 -30 -5 -17 -5 -30 0 -30 5 0 5
-13 0 -30 -5 -17 -5 -30 0 -30 5 0 5 -13 0 -30 -5 -17 -5 -30 0 -30 5 0 5 -13
0 -30 -5 -17 -5 -30 0 -30 5 0 5 -13 0 -30 -5 -17 -5 -30 0 -30 5 0 5 -12 1
-28 -5 -15 -5 -37 0 -49 5 -13 4 -25 -1 -28 -6 -3 -6 -15 0 -30 5 -14 5 -27 0
-30 -5 -3 -5 -18 -1 -33 5 -15 5 -37 0 -49 -5 -13 -4 -25 1 -28 5 -3 6 -15 1
-28 -4 -12 -6 -27 -4 -32 4 -14 -32 -120 -49 -141 -66 -83 -147 -132 -233
-139 -31 -3 -61 -7 -66 -11 -5 -3 -9 0 -9 6 0 6 -5 8 -11 4 -14 -8 -134 -8
-148 0 -6 4 -11 4 -11 -1 0 -9 -83 -8 -106 1 -8 3 -14 1 -14 -4 0 -5 -13 -5
-30 0 -17 5 -30 5 -30 0 0 -5 -13 -5 -30 0 -18 5 -30 5 -30 0 0 -6 -10 -6 -25
0 -15 6 -27 6 -30 0 -3 -6 -15 -6 -30 0 -15 6 -27 6 -30 0 -4 -6 -13 -7 -24
-1 -9 5 -23 6 -30 1 -8 -4 -27 -4 -42 0 -17 5 -29 5 -29 0 0 -6 -10 -6 -25 0
-15 6 -27 6 -30 0 -3 -5 -15 -6 -28 -1 -12 5 -32 5 -44 0 -14 -5 -23 -5 -23 1
0 5 -12 5 -30 0 -16 -5 -32 -5 -34 -1 -3 4 -30 4 -60 1 -31 -3 -56 -3 -56 1 0
4 -13 4 -30 -1 -19 -5 -30 -5 -30 1 0 6 -5 7 -11 3 -6 -3 -39 -6 -74 -6 -35 0
-68 3 -74 6 -6 4 -11 4 -11 -1 0 -4 -16 -8 -35 -8 -19 0 -35 4 -35 8 0 5 -5 5
-11 1 -6 -3 -39 -6 -74 -6 -35 0 -68 3 -74 6 -6 4 -11 4 -11 -1 0 -9 -83 -8
-106 1 -8 3 -14 1 -14 -4 0 -5 -13 -5 -30 0 -17 5 -30 5 -30 0 0 -5 -13 -5
-30 0 -18 5 -30 5 -30 0 0 -6 -10 -6 -25 0 -15 6 -27 6 -30 0 -3 -6 -15 -6
-30 0 -15 6 -27 6 -30 0 -4 -6 -13 -7 -24 -1 -9 5 -23 6 -30 1 -8 -4 -27 -4
-42 0 -17 5 -29 5 -29 0 0 -6 -10 -6 -25 0 -15 6 -27 6 -30 0 -3 -5 -15 -6
-28 -1 -12 5 -32 5 -44 0 -14 -5 -23 -5 -23 1 0 5 -12 5 -29 0 -16 -4 -32 -6
-35 -2 -8 7 -69 7 -89 -1 -9 -3 -19 -2 -22 3 -3 4 -17 5 -33 1 -15 -4 -42 -4
-59 0 -18 4 -33 3 -33 -2 0 -5 -10 -5 -23 0 -13 5 -30 5 -39 0 -11 -6 -19 -5
-23 1 -4 6 -13 7 -24 1 -10 -6 -23 -6 -31 -1 -8 5 -21 5 -31 -1 -11 -5 -20 -5
-23 0 -4 5 -18 6 -34 2 -15 -4 -42 -4 -59 0 -18 4 -33 3 -33 -2 0 -5 -10 -5
-23 0 -13 5 -30 5 -39 0 -11 -6 -19 -5 -23 1 -4 6 -11 8 -16 4 -16 -9 -99 -10
-99 -1 0 5 -5 5 -10 2 -14 -9 -118 -10 -126 -2 -4 3 -15 2 -25 -3 -11 -7 -20
-7 -24 0 -3 6 -15 6 -30 0 -15 -6 -27 -6 -30 0 -3 6 -15 6 -30 0 -15 -6 -25
-6 -25 0 0 5 -12 5 -30 0 -17 -5 -32 -5 -35 0 -3 5 -16 5 -30 0 -17 -6 -25 -6
-25 1 0 6 -5 7 -11 4 -13 -9 -177 -10 -185 -2 -4 4 -15 2 -25 -3 -11 -7 -20
-7 -24 0 -3 6 -15 6 -30 0 -15 -6 -27 -6 -30 0 -3 6 -15 6 -30 0 -15 -6 -25
-6 -25 0 0 5 -12 5 -30 0 -17 -5 -32 -5 -35 0 -3 5 -16 5 -30 0 -17 -6 -25 -6
-25 1 0 6 -5 7 -11 3 -14 -8 -176 -7 -189 1 -6 4 -10 2 -10 -4 0 -7 -8 -7 -25
-1 -15 6 -27 6 -30 0 -3 -6 -16 -5 -33 1 -29 11 -29 11 -54 -2 -10 -5 -19 -5
-22 0 -4 5 -18 6 -34 2 -15 -4 -42 -4 -59 0 -18 4 -33 3 -33 -2 0 -5 -10 -5
-23 0 -13 5 -30 5 -39 0 -11 -6 -19 -5 -23 1 -4 7 -12 7 -24 0 -10 -5 -21 -7
-24 -4 -3 3 -26 7 -52 10 -139 11 -262 142 -271 287 -1 21 -5 41 -8 44 -3 3
-1 13 4 22 5 10 5 23 0 31 -5 8 -5 21 0 30 5 9 5 22 0 29 -4 8 -4 27 0 42 5
16 5 29 0 29 -5 0 -5 13 0 30 5 17 6 30 2 30 -8 0 -6 86 3 99 3 5 1 12 -4 15
-6 4 -6 18 -1 36 5 16 5 32 0 35 -5 3 -5 19 0 35 5 16 5 32 0 35 -5 3 -5 19 0
35 5 17 5 32 0 35 -5 3 -5 16 0 30 6 16 6 25 0 25 -6 0 -6 9 0 25 5 14 5 27 0
30 -5 3 -5 18 0 35 5 16 5 32 0 35 -5 3 -5 19 0 35 5 16 5 32 0 35 -5 3 -5 19
0 35 5 17 5 32 0 35 -5 3 -5 16 0 30 6 16 6 25 0 25 -6 0 -6 9 0 25 5 14 5 27
0 30 -5 3 -5 18 0 35 5 16 5 32 0 35 -5 3 -5 19 0 35 5 16 5 32 0 35 -5 3 -5
19 0 35 5 18 5 32 -1 36 -5 3 -7 9 -4 14 3 5 7 31 9 59 11 154 119 274 267
296 24 4 46 9 49 11 2 3 6 1 8 -5 2 -6 14 -6 32 -1z m45 -2560 c11 4 31 4 45
0 14 -4 34 -4 45 0 11 4 31 4 45 1 14 -4 41 -4 60 -1 19 3 54 3 78 -1 23 -3
42 -3 42 1 0 4 20 4 45 0 25 -4 45 -4 45 -1 0 11 234 -4 252 -15 7 -5 18 -9
25 -10 20 -3 76 -45 109 -81 48 -53 74 -114 79 -183 2 -34 6 -65 9 -67 3 -3 1
-13 -4 -22 -5 -10 -5 -23 0 -31 5 -8 5 -21 0 -30 -5 -9 -5 -22 0 -30 5 -8 5
-21 0 -30 -5 -9 -5 -22 0 -30 5 -8 5 -21 0 -30 -5 -9 -5 -22 0 -30 5 -8 5 -21
0 -30 -5 -9 -5 -22 0 -30 5 -8 5 -21 0 -30 -5 -9 -5 -22 0 -30 5 -8 5 -21 0
-30 -5 -9 -5 -22 0 -30 5 -8 5 -21 0 -30 -5 -9 -5 -22 0 -30 4 -7 4 -24 0 -36
-6 -14 -5 -26 0 -29 5 -3 6 -15 0 -29 -4 -12 -4 -29 0 -36 5 -8 6 -18 3 -23
-3 -4 -7 -22 -10 -40 -11 -72 -70 -158 -138 -204 -40 -27 -96 -44 -156 -49
-28 -2 -54 -6 -59 -9 -5 -3 -11 -1 -15 5 -4 6 -12 7 -23 1 -9 -5 -26 -5 -39 0
-13 5 -23 5 -23 1 0 -8 -118 -8 -126 1 -4 4 -15 2 -25 -3 -11 -7 -20 -7 -24 0
-3 6 -15 6 -30 0 -15 -6 -27 -6 -30 1 -4 6 -13 6 -23 0 -9 -5 -26 -5 -39 0
-13 5 -23 5 -23 1 0 -8 -118 -8 -126 1 -4 4 -14 2 -24 -3 -10 -5 -20 -7 -23
-4 -3 3 -26 7 -52 10 -114 9 -225 105 -261 224 -7 24 -15 90 -14 118 0 6 0 19
0 27 0 8 0 22 0 30 0 8 0 22 0 30 0 8 0 22 0 30 0 8 0 22 0 30 0 8 0 22 0 30
0 8 0 22 0 30 0 8 0 22 0 30 0 8 0 22 0 30 0 8 0 22 0 30 0 8 0 22 0 30 0 8 0
22 0 30 0 8 0 22 0 30 0 8 0 22 0 30 0 8 0 22 0 30 0 8 0 22 0 30 0 8 0 22 0
30 0 8 0 22 0 30 0 8 0 22 0 30 0 8 -1 21 -1 28 -4 32 14 116 34 156 20 39 66
94 111 129 24 19 128 54 147 49 9 -3 22 -1 29 3 7 4 24 4 39 0 14 -4 35 -4 46
0z m1906 0 c22 4 39 3 39 -2 0 -5 4 -7 9 -4 8 5 69 8 111 5 8 -1 56 -1 105 0
50 0 98 0 108 0 74 0 111 0 130 2 50 4 166 -14 203 -32 66 -34 149 -118 158
-162 2 -7 7 -20 11 -31 4 -10 8 -45 9 -77 1 -32 4 -59 8 -59 4 0 3 -13 -2 -30
-5 -17 -5 -30 0 -30 5 0 5 -13 0 -30 -5 -17 -5 -30 0 -30 5 0 5 -13 0 -30 -5
-17 -5 -30 0 -30 5 0 5 -13 0 -30 -5 -17 -5 -30 0 -30 5 0 5 -13 0 -30 -5 -17
-5 -30 0 -30 5 0 5 -12 1 -28 -5 -15 -5 -37 0 -49 5 -13 4 -25 -1 -28 -6 -3
-6 -15 0 -30 5 -14 5 -27 0 -30 -5 -3 -5 -18 -1 -33 5 -15 5 -37 0 -49 -5 -13
-4 -25 1 -28 5 -3 6 -15 1 -28 -4 -12 -6 -27 -4 -32 4 -14 -32 -120 -49 -141
-69 -87 -147 -133 -240 -140 -110 -9 -128 -10 -128 -2 0 4 -11 3 -25 -2 -15
-6 -26 -6 -30 0 -4 6 -13 7 -24 1 -9 -5 -23 -6 -31 -1 -7 4 -24 4 -36 0 -13
-5 -25 -6 -28 -1 -5 8 -71 5 -86 -4 -5 -3 -11 -1 -15 5 -4 6 -12 7 -23 1 -9
-5 -26 -5 -39 0 -13 5 -23 5 -23 1 0 -8 -118 -8 -126 1 -4 4 -14 2 -24 -3 -10
-5 -20 -7 -23 -4 -3 3 -26 7 -52 10 -139 11 -262 142 -271 287 -1 21 -5 41 -8
44 -3 3 -1 13 4 22 5 10 5 23 0 31 -5 8 -5 21 0 30 5 9 5 22 0 29 -4 8 -4 27
0 42 5 16 5 29 0 29 -5 0 -5 13 0 30 5 17 6 30 2 30 -8 0 -6 86 3 99 3 5 1 12
-4 15 -6 4 -6 18 -1 36 5 16 5 32 0 35 -5 3 -5 19 0 35 5 16 5 32 0 35 -5 3
-5 19 0 35 5 18 5 32 -1 36 -5 3 -7 9 -4 14 3 5 7 31 9 59 11 157 121 276 273
297 26 3 50 8 52 10 3 2 9 0 13 -4 5 -5 27 -6 49 -2z m1984 0 c10 3 38 3 62 0
24 -4 43 -3 43 2 0 5 4 6 10 3 5 -3 36 -6 67 -5 73 1 81 1 118 1 17 -1 37 -1
45 0 8 0 31 0 50 0 19 -1 42 0 50 0 55 3 159 -14 196 -32 67 -34 151 -120 158
-162 1 -7 5 -17 8 -22 4 -6 9 -35 13 -65 3 -29 8 -57 11 -62 3 -4 1 -8 -5 -8
-6 0 -6 -11 -1 -30 5 -17 5 -30 0 -30 -5 0 -5 -13 0 -30 5 -17 5 -30 0 -30 -5
0 -5 -13 0 -30 5 -17 5 -30 0 -30 -5 0 -5 -13 0 -30 5 -17 5 -30 0 -30 -5 0
-5 -13 0 -30 5 -17 5 -30 0 -30 -5 0 -5 -13 0 -30 5 -17 5 -30 0 -30 -5 0 -5
-13 0 -30 5 -17 5 -30 0 -30 -5 0 -5 -13 0 -30 5 -17 5 -30 0 -30 -5 0 -5 -12
-1 -28 5 -15 5 -37 0 -49 -5 -13 -4 -25 1 -28 5 -3 6 -15 1 -28 -4 -12 -6 -27
-4 -32 4 -14 -32 -120 -49 -141 -65 -82 -151 -135 -223 -137 -25 -1 -45 -5
-45 -9 0 -4 -11 -3 -25 2 -15 6 -25 6 -25 0 0 -5 -12 -5 -30 0 -16 5 -30 6
-30 2 0 -4 -25 -7 -55 -7 -30 0 -55 3 -55 7 0 4 -6 5 -12 3 -23 -9 -108 -11
-108 -3 0 4 -11 3 -25 -2 -15 -6 -26 -6 -30 0 -4 6 -13 7 -24 1 -9 -5 -23 -6
-30 -1 -8 4 -27 4 -42 0 -17 -5 -29 -5 -29 0 0 6 -10 6 -25 0 -15 -6 -27 -6
-30 0 -3 6 -15 6 -29 0 -13 -5 -27 -6 -30 -3 -3 4 -21 7 -38 8 -138 7 -277
140 -281 270 -1 25 -5 45 -9 45 -4 0 -3 11 2 25 5 14 5 27 0 30 -5 3 -5 18 0
35 5 16 5 32 0 35 -5 3 -5 19 0 35 5 16 5 32 0 35 -5 3 -5 19 0 35 5 17 5 32
0 35 -5 3 -5 16 0 30 6 16 6 25 0 25 -6 0 -6 9 0 25 5 14 5 27 0 30 -5 3 -5
18 0 35 5 16 5 32 0 35 -5 3 -5 19 0 35 5 16 5 32 0 35 -5 3 -5 19 0 35 5 18
5 32 -1 36 -5 3 -7 9 -4 14 3 5 7 31 9 59 12 161 125 281 284 297 31 4 58 7
60 9 1 1 22 -1 46 -5 23 -3 51 -3 61 0z m-3915 -1922 c0 8 68 7 76 -1 3 -3 16
-2 28 2 11 5 30 5 41 1 11 -4 32 -4 47 1 15 4 30 4 33 -1 3 -5 18 -5 33 -1 15
5 36 5 47 1 11 -4 24 -5 29 -2 13 7 136 8 136 0 0 -4 13 -3 29 2 16 4 31 6 34
4 2 -2 34 -6 71 -9 37 -2 72 -8 79 -12 7 -4 17 -8 24 -9 42 -7 128 -91 162
-159 18 -36 34 -130 32 -182 -1 -7 -1 -20 -1 -28 0 -8 0 -22 0 -30 0 -8 0 -22
0 -30 0 -8 0 -22 0 -30 0 -8 0 -22 0 -30 0 -8 0 -22 0 -30 0 -8 0 -21 0 -27 0
-7 1 -26 3 -43 1 -16 -1 -40 -5 -52 -4 -12 -3 -25 2 -28 5 -3 5 -18 0 -35 -5
-16 -5 -32 0 -35 5 -3 5 -19 0 -35 -5 -16 -5 -32 0 -35 5 -3 5 -19 0 -35 -5
-18 -5 -32 1 -36 5 -3 7 -9 4 -14 -3 -5 -7 -31 -9 -59 -11 -154 -119 -274
-267 -296 -62 -10 -169 -11 -169 -3 0 4 -6 5 -12 3 -19 -7 -128 -11 -128 -5 0
7 -86 4 -99 -4 -5 -4 -12 -2 -16 4 -4 6 -12 7 -23 1 -9 -5 -26 -5 -39 0 -13 5
-23 5 -23 1 0 -8 -118 -8 -126 1 -4 4 -14 2 -24 -3 -10 -5 -20 -7 -23 -3 -4 3
-27 7 -52 9 -111 7 -225 105 -261 224 -7 24 -15 90 -14 118 0 6 0 19 0 27 0 8
0 22 0 30 0 8 0 22 0 30 0 8 0 22 0 30 0 8 0 22 0 30 0 8 0 22 0 30 0 8 0 22
0 30 0 8 0 22 0 30 0 8 0 22 0 30 0 8 0 22 0 30 0 8 0 22 0 30 0 8 0 22 0 30
0 8 0 22 0 30 0 8 0 22 0 30 0 8 0 22 0 30 0 8 0 22 0 30 0 8 0 22 0 30 0 8 0
22 0 30 0 8 0 22 0 30 0 8 -1 21 -1 28 -4 32 14 116 34 156 20 39 66 94 111
129 25 20 128 53 148 48 10 -2 20 0 23 4 3 5 19 5 35 0 17 -5 30 -6 30 -2z
m1905 2 c11 4 30 4 41 -1 12 -4 25 -5 28 -1 4 3 28 5 54 3 26 -1 54 -2 62 -1
8 0 26 0 40 -1 14 0 36 -1 50 -1 14 0 36 1 50 1 14 1 32 1 40 0 8 0 26 0 40 0
14 1 32 1 40 0 8 0 26 0 40 0 14 1 32 1 40 0 8 0 26 0 40 2 87 8 190 -31 257
-99 58 -58 82 -113 89 -201 2 -29 7 -57 10 -62 3 -5 1 -9 -5 -9 -6 0 -6 -11
-1 -30 5 -17 5 -30 0 -30 -5 0 -5 -13 0 -29 4 -15 4 -34 0 -42 -5 -7 -5 -20 0
-29 5 -9 5 -22 0 -30 -5 -8 -6 -18 -3 -24 9 -14 9 -58 1 -83 -4 -12 -3 -25 2
-28 5 -3 5 -18 0 -35 -5 -16 -5 -32 0 -35 5 -3 5 -19 0 -35 -5 -16 -5 -32 0
-35 5 -3 5 -19 0 -35 -5 -18 -5 -32 1 -36 5 -3 7 -9 4 -14 -3 -5 -7 -31 -9
-59 -12 -161 -131 -286 -284 -296 -30 -2 -57 -6 -59 -9 -3 -3 -14 -1 -24 4
-11 7 -20 7 -24 0 -3 -6 -15 -6 -29 0 -13 5 -27 6 -30 3 -8 -9 -66 -9 -66 -1
0 4 -13 3 -30 -2 -16 -5 -30 -6 -30 -2 0 8 -85 6 -99 -2 -5 -4 -12 -2 -16 4
-4 6 -12 7 -23 1 -9 -5 -26 -5 -39 0 -13 5 -23 5 -23 1 0 -8 -118 -8 -126 1
-4 4 -14 2 -24 -3 -10 -5 -20 -7 -23 -3 -4 3 -27 7 -52 9 -60 4 -129 39 -182
92 -58 58 -82 113 -89 201 -2 29 -7 57 -10 62 -3 5 -1 9 5 9 6 0 6 11 1 30 -5
17 -5 30 0 30 5 0 5 13 0 29 -4 15 -4 34 0 42 5 7 5 20 0 29 -5 9 -5 22 0 30
5 8 6 18 3 24 -9 14 -9 58 -1 83 4 12 3 25 -2 28 -5 3 -5 18 0 35 5 16 5 32 0
35 -5 3 -5 19 0 35 5 16 5 32 0 35 -5 3 -5 19 0 35 5 18 5 32 -1 36 -5 3 -7 9
-4 14 3 5 7 31 9 59 11 154 119 274 267 296 24 4 46 9 48 11 2 2 9 0 15 -5 6
-5 20 -5 31 -1z m2090 -4 c8 -3 17 -1 20 3 3 5 20 6 37 2 18 -4 42 -6 53 -5
27 3 67 5 85 3 8 0 26 0 40 0 14 1 32 1 40 0 8 0 26 0 40 0 14 1 32 1 40 0 8
0 26 0 40 2 144 14 293 -89 336 -231 7 -24 15 -90 14 -117 -1 -31 -1 -49 1
-147 1 -58 -2 -109 -6 -115 -3 -6 -2 -11 4 -11 6 0 6 -11 1 -30 -5 -17 -5 -30
0 -30 5 0 5 -13 0 -30 -5 -17 -5 -30 0 -30 5 0 5 -13 0 -30 -5 -17 -5 -30 0
-30 5 0 5 -13 0 -30 -5 -17 -5 -30 0 -30 5 0 5 -13 0 -30 -5 -17 -5 -30 0 -30
5 0 7 -6 4 -14 -3 -8 -7 -34 -9 -58 -1 -24 -4 -43 -5 -43 -1 0 -3 -10 -6 -23
-8 -46 -60 -114 -128 -170 -24 -20 -115 -49 -161 -51 -90 -5 -101 -5 -116 1
-9 3 -22 2 -29 -2 -8 -5 -22 -4 -31 1 -11 5 -20 5 -24 0 -3 -6 -17 -6 -35 -1
-17 5 -30 5 -30 0 0 -5 -13 -5 -30 0 -16 5 -30 5 -30 1 0 -7 -86 -5 -107 4 -7
2 -13 1 -13 -3 0 -4 -38 -7 -85 -7 -47 0 -85 2 -85 5 0 3 -30 6 -66 7 -36 0
-71 6 -77 12 -6 6 -19 11 -28 11 -9 0 -22 7 -29 15 -7 9 -15 13 -18 10 -9 -9
-86 81 -110 128 -19 38 -35 131 -33 185 1 6 1 19 1 27 0 8 0 22 0 30 0 8 0 22
0 30 0 8 0 22 0 30 0 8 0 22 0 30 0 8 0 22 0 30 0 8 0 21 0 28 0 6 -1 26 -3
42 -1 17 1 40 5 52 4 12 3 25 -2 28 -5 3 -5 18 0 35 5 16 5 32 0 35 -5 3 -5
19 0 35 5 16 5 32 0 35 -5 3 -5 19 0 35 5 18 5 32 -1 36 -5 3 -7 9 -4 14 3 5
7 31 9 59 12 164 134 289 289 297 32 1 60 4 62 6 5 5 165 0 180 -6z m-4010
-1916 c12 4 28 4 35 0 8 -5 21 -5 30 0 9 5 22 5 30 0 8 -5 21 -5 30 0 9 5 22
5 30 0 8 -5 21 -5 30 0 9 5 22 5 30 0 8 -5 21 -5 30 0 9 5 22 5 30 0 8 -5 21
-5 30 0 9 5 22 5 30 0 8 -5 21 -5 30 0 9 5 22 5 30 0 8 -5 21 -5 30 0 9 5 22
5 30 0 8 -5 21 -5 30 0 9 5 22 5 30 0 8 -5 21 -5 30 0 9 5 22 5 30 0 8 -5 21
-5 30 0 9 5 22 5 30 0 8 -5 21 -5 30 0 9 5 22 5 30 0 8 -5 21 -5 30 0 9 5 22
5 30 0 8 -5 21 -5 30 0 9 5 22 5 30 0 8 -5 21 -5 30 0 9 5 22 5 30 0 8 -5 21
-5 30 0 9 5 22 5 30 0 8 -5 21 -5 30 0 9 5 22 5 30 0 8 -5 21 -5 30 0 9 5 22
5 30 0 8 -5 21 -5 30 0 9 5 22 5 30 0 8 -5 21 -5 30 0 9 5 22 5 30 0 8 -5 21
-5 30 0 9 5 22 5 30 0 8 -5 21 -5 30 0 9 5 22 5 30 0 8 -5 21 -5 30 0 9 5 22
5 30 0 8 -5 21 -5 30 0 9 5 22 5 30 0 8 -5 21 -5 30 0 9 5 22 5 30 0 8 -5 21
-5 30 0 9 5 22 5 30 0 8 -5 21 -5 30 0 9 5 22 5 30 0 8 -5 21 -5 30 0 9 5 22
5 30 0 8 -5 21 -5 30 0 9 5 22 5 30 0 8 -5 21 -5 30 0 9 5 22 5 30 0 8 -5 21
-5 30 0 9 5 22 5 30 0 8 -5 21 -5 30 0 9 5 22 5 30 0 8 -5 21 -5 30 0 9 5 22
5 30 0 8 -5 21 -5 30 0 9 5 22 5 30 0 8 -5 21 -5 30 0 9 5 22 5 30 0 8 -5 21
-5 31 0 9 5 19 7 22 4 8 -8 106 -9 113 -1 3 3 19 1 35 -3 16 -5 29 -6 29 -2 0
4 34 7 75 7 41 0 75 -3 75 -7 0 -4 13 -3 29 2 16 4 31 7 33 5 2 -2 23 -6 48
-10 142 -21 257 -145 266 -288 1 -21 5 -41 8 -44 3 -3 1 -13 -4 -22 -5 -10 -5
-23 0 -31 5 -8 5 -21 0 -30 -5 -9 -5 -22 0 -29 4 -8 4 -27 0 -42 -5 -16 -5
-29 0 -29 5 0 5 -13 0 -30 -5 -16 -6 -30 -2 -30 8 0 6 -86 -3 -99 -3 -5 -1
-12 4 -15 6 -4 6 -18 1 -36 -5 -16 -5 -32 0 -35 5 -3 5 -19 0 -35 -5 -16 -5
-32 0 -35 5 -3 5 -19 0 -35 -5 -18 -5 -32 1 -36 5 -3 7 -9 4 -14 -3 -5 -7 -31
-9 -59 -12 -162 -136 -291 -283 -295 -29 0 -53 -3 -53 -6 0 -3 -41 -5 -90 -5
-50 0 -90 3 -90 7 0 4 -13 3 -30 -2 -16 -5 -30 -6 -30 -2 0 8 -86 6 -99 -3 -5
-3 -12 -1 -16 4 -3 6 -15 7 -29 1 -12 -4 -29 -4 -36 0 -8 5 -18 6 -24 3 -13
-9 -126 -9 -126 -1 0 4 -11 3 -25 -2 -16 -6 -25 -6 -25 0 0 6 -9 6 -25 0 -15
-6 -27 -6 -30 0 -3 5 -15 6 -29 0 -12 -4 -29 -4 -36 0 -8 5 -18 6 -24 3 -13
-9 -126 -9 -126 -1 0 4 -11 3 -25 -2 -16 -6 -25 -6 -25 0 0 6 -9 6 -25 0 -15
-6 -27 -6 -30 0 -3 5 -15 6 -29 0 -12 -4 -29 -4 -36 0 -8 5 -18 6 -24 3 -13
-9 -126 -9 -126 -1 0 4 -11 3 -25 -2 -16 -6 -25 -6 -25 0 0 6 -9 6 -25 0 -15
-6 -27 -6 -30 0 -3 5 -15 6 -29 0 -12 -4 -29 -4 -36 0 -8 5 -18 6 -24 3 -13
-9 -126 -9 -126 -1 0 4 -10 4 -22 0 -26 -9 -75 -8 -84 1 -3 3 -17 2 -30 -3
-14 -6 -26 -6 -29 0 -3 6 -15 6 -30 0 -15 -6 -27 -6 -30 0 -3 6 -15 6 -30 0
-15 -6 -27 -6 -30 0 -4 6 -13 7 -24 1 -9 -5 -23 -6 -31 -1 -7 4 -24 4 -36 0
-14 -6 -26 -5 -29 0 -3 6 -15 6 -30 0 -15 -6 -27 -6 -30 0 -3 6 -15 6 -30 0
-15 -6 -27 -6 -30 0 -4 6 -13 7 -24 1 -9 -5 -23 -6 -31 -1 -7 4 -24 4 -36 0
-14 -6 -26 -5 -29 0 -3 6 -15 6 -30 0 -15 -6 -27 -6 -30 0 -3 6 -15 6 -30 0
-15 -6 -27 -6 -30 0 -4 6 -13 7 -24 1 -9 -5 -23 -6 -31 -1 -7 4 -24 4 -36 0
-14 -6 -26 -5 -29 0 -4 6 -13 7 -24 1 -10 -6 -23 -6 -31 -1 -8 5 -21 5 -31 0
-9 -5 -19 -7 -22 -4 -3 3 -23 7 -44 8 -77 5 -139 33 -195 89 -54 53 -89 124
-91 182 -1 25 -5 45 -9 45 -4 0 -3 11 2 25 5 14 5 27 0 30 -5 3 -5 18 0 35 5
16 5 32 0 35 -5 3 -5 19 0 35 5 16 5 32 0 35 -5 3 -5 19 0 35 5 17 5 32 0 35
-5 3 -5 16 0 30 6 16 6 25 0 25 -6 0 -6 9 0 25 5 14 5 27 0 30 -5 3 -5 18 0
35 5 16 5 32 0 35 -5 3 -5 19 0 35 5 16 5 32 0 35 -5 3 -5 19 0 35 5 18 5 32
-1 36 -5 3 -7 9 -4 14 3 5 7 31 9 59 11 154 119 274 267 296 24 4 46 9 48 11
3 2 9 0 14 -5 6 -6 19 -6 32 -1z m3905 -2 c0 4 34 7 75 7 41 0 75 -3 75 -7 0
-4 12 -3 28 1 15 5 37 5 49 0 12 -4 25 -4 28 1 3 5 18 5 35 0 17 -5 30 -6 30
-2 0 4 34 7 75 7 41 0 75 -3 75 -7 0 -4 13 -3 29 2 16 4 31 7 33 5 2 -2 23 -6
48 -10 63 -9 127 -43 177 -93 58 -58 82 -113 89 -201 2 -29 7 -57 10 -62 3 -5
1 -9 -5 -9 -6 0 -6 -11 -1 -30 5 -17 5 -30 0 -30 -5 0 -5 -13 0 -30 5 -17 5
-30 0 -30 -5 0 -5 -13 0 -30 5 -17 5 -30 0 -30 -5 0 -5 -13 0 -30 5 -17 5 -30
0 -30 -5 0 -5 -13 0 -30 5 -17 5 -30 0 -30 -5 0 -5 -13 0 -30 5 -17 5 -30 0
-30 -5 0 -5 -13 0 -30 5 -17 5 -30 0 -30 -5 0 -5 -13 0 -30 5 -17 5 -30 0 -30
-5 0 -5 -13 0 -30 5 -16 5 -30 0 -30 -4 0 -4 -16 0 -34 4 -19 6 -37 4 -39 -2
-2 -6 -14 -8 -28 -2 -13 -5 -24 -6 -24 -1 0 -3 -10 -6 -23 -8 -46 -60 -114
-128 -170 -21 -17 -127 -53 -141 -49 -5 2 -22 0 -37 -4 -16 -4 -28 -4 -28 1 0
5 -12 5 -28 1 -15 -5 -37 -5 -49 0 -13 5 -25 4 -28 -1 -3 -6 -15 -6 -30 0 -15
6 -25 6 -25 0 0 -5 -12 -5 -30 0 -17 5 -32 5 -35 0 -3 -5 -16 -5 -30 0 -15 6
-27 6 -30 0 -3 -6 -15 -6 -30 0 -15 6 -27 6 -30 0 -3 -6 -15 -6 -30 0 -15 6
-25 6 -25 0 0 -5 -12 -5 -30 0 -17 5 -32 5 -35 0 -3 -5 -16 -5 -30 0 -15 6
-25 6 -25 0 0 -5 -12 -5 -30 0 -19 5 -30 5 -30 -1 0 -6 -4 -8 -8 -5 -5 3 -33
8 -63 11 -30 4 -58 11 -63 16 -6 5 -18 9 -27 9 -9 0 -22 7 -29 15 -7 9 -15 13
-18 10 -9 -9 -86 81 -110 128 -19 38 -35 131 -33 185 1 6 1 19 1 27 0 8 0 22
0 30 0 8 0 22 0 30 0 8 0 22 0 30 0 8 0 22 0 30 0 8 0 22 0 30 0 8 0 22 0 30
0 8 0 22 0 30 0 8 0 22 0 30 0 8 0 22 0 30 0 8 0 22 0 30 0 8 0 22 0 30 0 8 0
22 0 30 0 8 0 22 0 30 0 8 0 22 0 30 0 8 0 22 0 30 0 8 0 22 0 30 0 8 0 21 -1
28 0 6 0 21 1 32 0 11 0 27 0 35 -5 95 80 229 175 275 49 23 56 25 128 30 32
2 61 6 64 8 2 3 18 1 34 -3 16 -5 29 -6 29 -2z"/>
</g>
</svg>
